<svg id="Layer_1" data-name="Layer 1" xmlns="http://www.w3.org/2000/svg" viewBox="0 0 512 512"><defs><style>.cls-1{fill:#ffd38d;}.cls-2{fill:#6d4135;}.cls-3{opacity:0.1;}</style></defs><title>video-film-flat</title><rect class="cls-1" y="21.33" width="512" height="469.33" rx="21.33" ry="21.33"/><rect class="cls-2" x="64" y="85.33" width="42.67" height="42.67"/><rect class="cls-2" x="149.33" y="85.33" width="42.67" height="42.67"/><rect class="cls-2" x="234.67" y="85.33" width="42.67" height="42.67"/><rect class="cls-2" x="320" y="85.33" width="42.67" height="42.67"/><rect class="cls-2" x="64" y="384" width="42.67" height="42.67"/><rect class="cls-2" x="149.33" y="384" width="42.67" height="42.67"/><rect class="cls-2" x="234.67" y="384" width="42.67" height="42.67"/><rect class="cls-2" x="320" y="384" width="42.67" height="42.67"/><path class="cls-2" d="M192,209.26v93.48c0,7.93,9.3,13.09,17.21,9.54l104.22-46.74c8.76-3.93,8.76-15.15,0-19.08L209.21,199.72C201.3,196.17,192,201.33,192,209.26Z"/><rect class="cls-2" x="405.33" y="85.33" width="42.67" height="42.67"/><rect class="cls-2" x="405.33" y="384" width="42.67" height="42.67"/><g class="cls-3"><path d="M512,42.67V469.33a21.4,21.4,0,0,1-21.33,21.33H256V21.33H490.67A21.4,21.4,0,0,1,512,42.67Z"/></g></svg>